<?xml version="1.0" encoding="UTF-8" standalone="no"?>
<svg
   xmlns:dc="http://purl.org/dc/elements/1.1/"
   xmlns:cc="http://creativecommons.org/ns#"
   xmlns:rdf="http://www.w3.org/1999/02/22-rdf-syntax-ns#"
   xmlns:svg="http://www.w3.org/2000/svg"
   xmlns="http://www.w3.org/2000/svg"
   xmlns:sodipodi="http://sodipodi.sourceforge.net/DTD/sodipodi-0.dtd"
   xmlns:inkscape="http://www.inkscape.org/namespaces/inkscape"
   width="1084.55px"
   height="998.95px"
   viewBox="0 0 1084.55 998.95"
   version="1.1"
   id="svg8"
   sodipodi:docname="aisling-duval.svg"
   inkscape:version="0.92.3 (2405546, 2018-03-11)">
  <metadata
     id="metadata12">
    <rdf:RDF>
      <cc:Work
         rdf:about="">
        <dc:format>image/svg+xml</dc:format>
        <dc:type
           rdf:resource="http://purl.org/dc/dcmitype/StillImage" />
      </cc:Work>
    </rdf:RDF>
  </metadata>
  <sodipodi:namedview
     pagecolor="#ffffff"
     bordercolor="#666666"
     borderopacity="1"
     objecttolerance="10"
     gridtolerance="10"
     guidetolerance="10"
     inkscape:pageopacity="0"
     inkscape:pageshadow="2"
     inkscape:window-width="1920"
     inkscape:window-height="1017"
     id="namedview10"
     showgrid="false"
     inkscape:zoom="0.23624806"
     inkscape:cx="542.27502"
     inkscape:cy="499.47501"
     inkscape:window-x="1672"
     inkscape:window-y="-8"
     inkscape:window-maximized="1"
     inkscape:current-layer="svg8" />
  <defs
     id="defs2" />
  <g
     id="g6"
     style="fill:#0099ff;fill-opacity:1">
    <path
       d="m 1083.9,367.75 0.1,-0.1 0.55,0.25 0.95,1.2 0.15,0.35 -0.2,0.55 -3.7,2.1 -1.25,1 -416.6,403.1 -29.4,28.65 -1.8,2 -1.6,2.15 -1.4,2.3 -1.15,2.35 -76.95,180.6 -1.9,4.4 -0.25,0.3 -0.35,0.1 -0.4,-0.1 -0.25,-0.3 -76.6,-193.6 -2.2,-4.25 -3,-3.9 -2.3,-2.2 -457.9,-387.75 -3.4,-3.05 -1.95,-2.3 0.1,-0.5 0.6,-0.3 3.15,1.4 532.8,259.9 2.65,1 2.35,0.15 2.25,-0.65 2.35,-1.4 174,-122.15 174.1,-122 2.5,-1.6 2.65,-1.4 2.8,-1.15 2.8,-0.85 172.55,-43.15 5.15,-1.15 m -511.25,81.7 0.15,0.1 9.3,0.25 9.3,0.6 3.7,0.55 3.35,1 1.65,0.7 1.55,0.8 2.85,1.9 1.3,1.1 2.45,2.4 2.25,2.7 2.05,3 3.45,6.45 3.05,7.5 2.3,7.7 1.2,5.25 1.7,10.6 1.25,11.9 1.45,19.75 1.75,26.4 v 1.2 l -0.35,1.95 -0.95,1.75 -0.65,0.75 -1.75,1.35 -94.35,62.55 -1.35,0.75 -1.55,0.65 -1.5,0.3 -1.2,-0.15 -9.35,-4.1 -27.45,-12.55 -0.4,-0.55 17.85,-38.4 8.65,-20.3 6.1,-14.85 5.9,-14.95 6.4,-17.1 1,-3.6 0.25,-1.5 v -2.65 l -0.25,-1.05 -0.45,-0.95 -0.7,-0.9 -1.9,-1.4 -2.75,-1.1 -3.7,-0.9 -6.2,-1.05 -8.05,-1 -4,-0.1 -2,0.1 -4,0.6 -3.9,1.2 -1.9,0.85 -3.5,2.15 -0.7,0.05 -1.1,-0.6 -0.2,-0.6 2.25,-10.9 1.2,-3.6 2.05,-4.2 2.4,-3.85 2.75,-3.5 3.1,-3.15 3.45,-2.8 3.75,-2.45 4.05,-2.1 4.35,-1.75 8.95,-2.8 4.5,-1.15 9.05,-1.85 4.55,-0.7 9.15,-1.05 9.2,-0.55 9.2,-0.1 M 877.5,223.8 l 0.15,-0.1 0.6,0.35 8.1,14.45 3.35,6.3 1.6,2.15 1,0.9 2.2,1.25 1.4,0.45 7.2,1.15 5.65,1.1 10.8,2.25 0.5,0.5 -0.15,0.65 -11.55,12.55 -5,5.15 -0.8,1.1 -1.05,2.25 -0.25,1.2 -0.1,2.6 3.1,23.65 -0.05,0.35 -0.4,0.4 -0.5,-0.05 -15.95,-7.45 -5.5,-2.3 -1.95,-0.55 -2.15,-0.2 -2.15,0.2 -2,0.55 -5.4,2.25 -15.9,7.45 -0.7,-0.05 -0.3,-0.65 2.1,-17.65 0.5,-5.95 -0.1,-1.9 -0.45,-2 -0.8,-1.9 -1.05,-1.6 -3.85,-4.4 -12.35,-13.2 0.05,-0.7 0.4,-0.25 17.6,-3.4 5.85,-1.3 1.7,-0.6 1.65,-1 1.45,-1.25 1.1,-1.4 3.05,-5.15 8.75,-15.85 0.6,-0.35 m -671.5,-0.05 -0.1,0.05 0.6,0.35 8.5,15.45 3.1,5.15 1.3,1.6 1.7,1.4 1.9,1.1 1.95,0.7 5.7,1.35 17.15,3.3 0.5,0.45 -0.15,0.65 -11.65,12.65 -5,5.2 -0.75,1.05 -1,2.15 -0.25,1.15 -0.1,2.45 3.05,23.9 v 0.3 l -0.35,0.4 h -0.55 l -16.1,-7.5 -5.5,-2.35 -1.85,-0.5 -2.05,-0.2 -2.05,0.15 -1.85,0.5 -5.5,2.3 -16.15,7.5 h -0.55 l -0.35,-0.4 -0.05,-0.3 2.1,-17.85 0.55,-6 -0.05,-1.8 -0.4,-1.85 -0.7,-1.75 -1,-1.5 -3.95,-4.5 -12.45,-13.35 0.05,-0.7 0.4,-0.25 16.9,-3.45 7.1,-1.2 1.25,-0.4 2.05,-1.15 0.85,-0.75 1.5,-1.95 11.65,-21.2 0.6,-0.35 m 135.75,-122.3 v -0.1 l 0.6,0.35 7.65,13.6 8.45,15.8 1,1.4 1.1,1.15 1.2,0.95 1.35,0.8 3.05,1.1 9.5,1.7 23,4.45 0.5,0.45 -0.15,0.65 -10.95,11.8 -12.45,13.05 -0.85,1.2 -1.15,2.5 -0.3,1.35 -0.1,2.85 4.35,33.45 v 0.3 l -0.35,0.4 h -0.55 l -14.15,-6.55 -16.05,-7.7 -3.1,-0.85 -1.55,-0.1 -1.55,0.1 -3.15,0.85 -15.9,7.65 -14.15,6.5 h -0.55 l -0.35,-0.4 -0.05,-0.3 4.3,-34.5 -0.05,-2.15 -0.2,-1 -0.85,-1.85 -1.45,-1.8 -23.35,-24.9 0.05,-0.7 0.4,-0.25 22.25,-4.45 9.6,-1.6 1.9,-0.55 1.65,-0.75 1.55,-0.95 1.35,-1.15 1.2,-1.35 1.15,-1.65 8.2,-15.4 7.35,-13.05 0.6,-0.35 m 398.75,0 0.1,0.1 0.6,0.35 16.65,30.2 1.5,1.9 0.9,0.75 2,1.1 1.2,0.4 34,6.5 0.5,0.45 -0.15,0.65 -9.55,10.45 -5.05,5.35 -7,6.9 -2.1,2.85 -1.3,3 -0.6,3.2 0.05,3.6 1.55,9.6 0.9,7.15 1.55,14 -0.05,0.35 -0.4,0.35 -0.5,-0.05 -14.85,-6.7 -5.9,-3 -4.25,-2.45 -2.9,-1.3 -2.85,-0.85 -1.4,-0.25 -2.75,-0.15 -2.75,0.25 -4.15,1.2 -2.85,1.3 -7.15,3.85 -5.9,2.8 -11.7,5.3 -0.7,-0.05 -0.3,-0.6 1.4,-13.1 0.85,-6.75 1.7,-10.8 -0.05,-3.95 -0.85,-3.65 -1.05,-2.35 -2.35,-3.3 -4.7,-4.5 -4.85,-4.9 -11.75,-13.1 v -0.35 l 0.5,-0.45 22.35,-4.45 9.5,-1.6 1.8,-0.5 1.6,-0.7 1.55,-0.9 1.35,-1.1 1.15,-1.25 1.1,-1.6 8.3,-15.6 7.45,-13.25 0.6,-0.35 M 542,0.15 V 0.1 l 0.6,0.35 7.25,12.9 16.85,30.55 5.45,10.2 1.75,2.7 2.1,1.95 2.55,1.35 3.05,0.8 56.45,10.65 4,1.05 0.4,0.3 0.05,0.65 -34.5,37 -9.25,9.55 -0.85,1.15 -1.05,2.4 -0.4,2.6 0.2,2.9 7.5,58.65 0.05,2.85 -0.2,0.45 -0.45,0.2 -0.3,-0.05 -4.7,-2.1 -51.9,-24.4 -2.45,-0.95 -2.35,-0.3 -2.35,0.3 -2.45,0.9 -51.4,24.2 -5.5,2.45 h -0.55 l -0.35,-0.4 -0.05,-0.3 4.3,-35.05 2.85,-21.15 0.3,-4.65 -0.05,-1.95 -0.25,-1.8 -0.4,-1.7 -0.6,-1.65 -0.85,-1.6 -1.05,-1.65 -2.9,-3.65 -39.4,-42.2 -0.15,-0.65 0.5,-0.45 41.3,-8.05 13.15,-1.8 3.2,-0.55 4.5,-1.3 2.7,-1.25 1.25,-0.8 1.1,-0.9 2,-2.05 2.6,-3.75 1.5,-2.8 5.7,-11.8 20.3,-36.55 0.5,-0.45 0.7,-0.3"
       id="path4"
       inkscape:connector-curvature="0"
       style="fill:#0099ff;stroke:none;fill-opacity:1" />
  </g>
</svg>
