<?xml version="1.0" encoding="UTF-8" standalone="no"?>
<svg
   xmlns:dc="http://purl.org/dc/elements/1.1/"
   xmlns:cc="http://creativecommons.org/ns#"
   xmlns:rdf="http://www.w3.org/1999/02/22-rdf-syntax-ns#"
   xmlns:svg="http://www.w3.org/2000/svg"
   xmlns="http://www.w3.org/2000/svg"
   xmlns:sodipodi="http://sodipodi.sourceforge.net/DTD/sodipodi-0.dtd"
   xmlns:inkscape="http://www.inkscape.org/namespaces/inkscape"
   width="1000.1px"
   height="1038.1px"
   viewBox="0 0 1000.1 1038.1"
   version="1.1"
   id="svg8"
   sodipodi:docname="felicia-winters.svg"
   inkscape:version="0.92.3 (2405546, 2018-03-11)">
  <metadata
     id="metadata12">
    <rdf:RDF>
      <cc:Work
         rdf:about="">
        <dc:format>image/svg+xml</dc:format>
        <dc:type
           rdf:resource="http://purl.org/dc/dcmitype/StillImage" />
      </cc:Work>
    </rdf:RDF>
  </metadata>
  <sodipodi:namedview
     pagecolor="#ffffff"
     bordercolor="#666666"
     borderopacity="1"
     objecttolerance="10"
     gridtolerance="10"
     guidetolerance="10"
     inkscape:pageopacity="0"
     inkscape:pageshadow="2"
     inkscape:window-width="3840"
     inkscape:window-height="2050"
     id="namedview10"
     showgrid="false"
     inkscape:zoom="0.22733841"
     inkscape:cx="445.06588"
     inkscape:cy="519.04999"
     inkscape:window-x="-12"
     inkscape:window-y="-12"
     inkscape:window-maximized="1"
     inkscape:current-layer="svg8" />
  <defs
     id="defs2" />
  <g
     id="g6"
     style="fill:#ff7f00;fill-opacity:1">
    <path
       d="m 509.4,197.7 0.1,0.3 10.75,0.2 10.65,0.45 10.55,0.7 10.5,0.95 10.4,1.2 10.3,1.45 10.25,1.7 10.15,1.95 10.05,2.2 9.95,2.45 9.9,2.7 9.8,2.95 9.7,3.2 9.6,3.45 9.55,3.7 9.45,3.95 9.35,4.2 9.25,4.45 9.2,4.7 9.1,4.95 9,5.2 8.9,5.45 8.8,5.7 8.75,5.95 8.65,6.2 8.55,6.45 8.45,6.7 8.35,6.95 8.3,7.2 7.15,6.55 7,6.65 6.8,6.75 6.6,6.85 6.4,6.95 6.25,7.05 6.05,7.15 5.85,7.25 5.65,7.35 5.5,7.45 5.3,7.55 5.1,7.65 4.9,7.75 4.75,7.85 4.55,7.95 4.35,8.05 4.15,8.15 4,8.25 3.8,8.35 3.6,8.45 3.4,8.55 3.25,8.65 3.05,8.75 2.85,8.85 2.65,8.95 2.5,9.05 2.3,9.15 2.1,9.25 1.95,9.35 1.75,9.45 1.55,9.5 2.2,16.45 1.35,13.6 0.9,13.55 0.5,13.5 0.05,13.45 -0.4,13.4 -0.85,13.35 -1.25,13.3 -1.7,13.25 -2.15,13.2 -2.55,13.1 -3,13.05 -3.45,13 -3.85,12.95 -4.3,12.9 -7.65,20.4 -0.3,2.05 0.15,0.95 0.85,1.65 7.45,7.4 2.7,3 2.6,3.05 4.75,6.4 4.2,6.7 1.9,3.45 3.35,7.05 1.45,3.6 2.5,7.35 1.9,7.5 0.75,3.8 1,7.7 0.3,3.9 0.1,7.8 -0.5,7.8 -1.1,7.8 -1.75,7.75 -2.35,7.7 -3,7.6 -1.7,3.65 -3.8,7.05 -4.35,6.65 -2.35,3.2 -5.05,6.05 -5.5,5.6 -5.9,5.15 -6.25,4.7 -6.6,4.2 -6.9,3.65 -7.15,3.15 -7.4,2.6 -3.8,1.1 -7.7,1.7 -3.9,0.65 -7.9,0.8 -4,0.15 -8.05,-0.15 -4.05,-0.35 -5.5,-0.7 -5.4,-0.95 -5.3,-1.25 -5.2,-1.55 -5.1,-1.85 -5,-2.15 -4.9,-2.5 -6.05,-3.5 -1.15,-0.45 -1.1,-0.25 h -1.05 l -1,0.2 -2.1,1.05 -16.4,12.65 -15.65,11.05 -16,10.3 -16.4,9.55 -16.75,8.75 -17.1,7.95 -11.6,4.85 -5.85,2.3 -11.85,4.3 -12.05,3.9 -6.1,1.8 -12.3,3.35 -6.2,1.5 -12.55,2.75 -6.35,1.25 -18.15,3.05 -12,1.65 -11.95,1.35 -17.8,1.4 -17.6,0.7 H 492.3 l -11.55,-0.4 -11.45,-0.7 -17.05,-1.6 -11.25,-1.45 -11.2,-1.8 -16.65,-3.25 -11,-2.55 -10.9,-2.9 -16.2,-4.9 -10.7,-3.65 -10.6,-4 -15.8,-6.55 -10.4,-4.8 -10.35,-5.1 -15.35,-8.25 -10.15,-5.9 -10.05,-6.2 -14.9,-9.9 -9.85,-7 -9.75,-7.35 -9.65,-7.65 -7.4,-6.15 -7.2,-6.25 -7.05,-6.4 -6.85,-6.5 -6.65,-6.6 -6.5,-6.7 -6.3,-6.85 -6.15,-6.95 -5.95,-7.05 -5.75,-7.15 -5.6,-7.25 -5.4,-7.4 -5.2,-7.5 -5.05,-7.6 -4.85,-7.7 -4.7,-7.8 -4.5,-7.9 -4.3,-8 -4.15,-8.15 -3.95,-8.25 -3.8,-8.35 -3.6,-8.45 -3.4,-8.55 -3.25,-8.65 -3.05,-8.75 -2.9,-8.85 -5.25,-18 -2.35,-9.15 -4.15,-18.6 -2.6,-14.05 -2,-13.75 -1.95,-18.1 -3.1,-34.05 1.35,-22.65 2.2,-22.15 3,-21.6 2.45,-14.1 1.35,-6.95 3,-13.75 1.65,-6.8 3.55,-13.4 1.95,-6.6 4.15,-13.05 2.2,-6.45 4.7,-12.7 2.5,-6.25 5.25,-12.35 2.75,-6.1 5.85,-12 3.05,-5.9 6.4,-11.65 3.35,-5.75 7,-11.3 3.65,-5.55 7.55,-10.95 3.9,-5.4 8.15,-10.55 4.2,-5.2 8.7,-10.2 4.5,-5 9.3,-9.85 4.8,-4.85 9.9,-9.5 10.3,-9.25 10.7,-9.05 5.5,-4.45 11.3,-8.7 5.8,-4.25 11.9,-8.3 6.1,-4.05 12.5,-7.95 6.4,-3.9 15.8,-8.95 16.05,-8.15 10.85,-5 10.95,-4.65 16.65,-6.3 11.25,-3.75 11.35,-3.4 17.25,-4.45 11.6,-2.55 11.7,-2.2 17.75,-2.7 11.95,-1.35 12.05,-1.05 17.05,-0.95 10.9,-0.3 10.8,-0.05 m -3.6,6.65 -0.1,-0.1 -19.45,0.55 -19.75,1.4 -20.05,2.3 -17.15,2.7 -16.85,3.4 -16.5,4.1 -16.15,4.8 -7.95,2.65 -15.65,5.85 -15.3,6.55 -14.95,7.2 -14.55,7.9 -7.15,4.2 -14.05,8.9 -13.65,9.55 -13.3,10.2 -12.95,10.85 -6.35,5.65 -12.35,11.8 -12,12.45 -9.65,10.8 -7.4,8.75 -10.5,13.25 -6.65,8.95 -6.35,9.05 -9,13.75 -5.6,9.3 -5.35,9.4 -7.45,14.25 -4.6,9.6 -4.3,9.7 -5.9,14.7 -3.55,9.9 -3.3,10 -4.4,15.15 -2.55,10.2 -2.25,10.3 -2.85,15.6 -1.55,10.5 -1.25,10.6 -0.95,10.7 -0.65,10.75 -0.35,10.85 -0.1,10.95 0.4,16.55 0.65,11.15 0.95,11.2 1.2,11.3 1.5,11.4 2.35,14.4 2.85,14.15 1.6,7 3.6,13.85 2,6.85 4.35,13.5 2.35,6.65 5.1,13.15 5.6,12.9 3,6.35 6.35,12.55 3.35,6.2 7.05,12.2 7.55,12 3.95,5.9 8.25,11.65 4.3,5.7 9,11.25 4.65,5.55 9.7,10.9 6.9,7.35 7,7.15 7.1,6.9 7.25,6.7 7.35,6.5 7.45,6.25 7.55,6.05 7.65,5.85 7.75,5.65 7.85,5.4 7.95,5.2 8.05,5 8.15,4.75 8.25,4.55 8.35,4.35 8.45,4.1 8.55,3.9 8.65,3.7 8.75,3.45 8.9,3.25 9,3.05 9.1,2.8 9.2,2.6 9.3,2.35 9.4,2.15 9.5,1.95 9.6,1.7 9.7,1.5 9.8,1.3 9.9,1.05 10,0.85 10.1,0.6 6.75,0.3 13.4,0.25 13.3,-0.25 13.2,-0.7 13.1,-1.15 13,-1.6 6.45,-0.95 12.85,-2.25 12.75,-2.7 6.35,-1.5 12.6,-3.35 12.5,-3.8 6.2,-2.05 12.35,-4.45 12.25,-4.9 12.15,-5.35 12.05,-5.8 6,-3.05 12.45,-6.8 6.4,-3.75 12.7,-7.85 25.05,-15.9 0.1,-0.25 -5.85,-14.95 -2.85,-8.3 -1.1,-3.75 -1.7,-6.95 -0.6,-3.3 -0.4,-3.25 -0.4,-6.5 0.1,-6.85 0.55,-7.55 0.7,-5.55 1,-5.45 1.3,-5.3 1.55,-5.2 1.85,-5.05 3.3,-7.35 3.85,-7 2.85,-4.45 3.1,-4.3 3.3,-4.15 3.5,-3.95 3.7,-3.75 3.9,-3.55 4.05,-3.35 4.25,-3.15 4.4,-2.9 4.55,-2.7 4.65,-2.45 4.8,-2.2 4.9,-1.95 5,-1.7 5.1,-1.45 7.8,-1.65 7.95,-1.05 8.05,-0.4 8.15,0.3 8.2,1 10,2.15 1.6,0.15 1.35,-0.1 1.15,-0.35 1,-0.65 0.9,-0.95 0.85,-1.3 0.8,-1.65 5.35,-12.75 4.9,-12.8 4.45,-12.85 4,-12.9 1.8,-6.5 3.3,-13 1.5,-6.55 2.6,-13.1 1.15,-6.6 1.95,-13.2 0.8,-6.65 1.25,-13.3 0.45,-6.7 0.35,-6.7 0.3,-13.45 -0.15,-13.5 -0.25,-6.75 -0.35,-6.8 -1.1,-13.65 -1.55,-13.7 -0.95,-7 -2.25,-13.8 -1.3,-6.85 -2.95,-13.55 -1.65,-6.7 -3.6,-13.25 -1.95,-6.55 -4.25,-13 -2.3,-6.4 -4.95,-12.7 -5.4,-12.45 -2.9,-6.15 -6.1,-12.15 -3.25,-6 -6.8,-11.85 -3.6,-5.85 -7.55,-11.5 -8,-11.25 -4.2,-5.55 -8.75,-10.95 -4.55,-5.4 -8.95,-10.15 -13.75,-14.5 -14.05,-13.65 -14.4,-12.8 -14.75,-11.95 -15.05,-11.1 -15.4,-10.25 -15.75,-9.4 -10.65,-5.8 -5.4,-2.75 -10.9,-5.25 -11.05,-4.85 -11.2,-4.5 -11.3,-4.1 -11.45,-3.7 -5.8,-1.7 -11.7,-3.15 -5.9,-1.45 -11.9,-2.6 -6,-1.15 -18.2,-2.9 -18.5,-2 -18.85,-1.15 -19.15,-0.3 m 0,156.35 -0.25,0.1 8.25,0.05 8.15,0.3 8.05,0.55 7.95,0.8 7.9,1 7.8,1.25 7.7,1.5 7.6,1.75 7.5,1.95 7.45,2.2 7.35,2.45 7.25,2.7 7.15,2.9 7.05,3.15 6.95,3.4 6.85,3.65 6.8,3.85 6.7,4.1 6.6,4.35 6.5,4.55 6.4,4.8 6.3,5.05 6.2,5.3 6.1,5.5 6,5.75 5.9,6 5.8,6.2 5.7,6.45 8.4,10.2 7.75,10.45 7.15,10.65 6.5,10.9 5.9,11.1 5.25,11.3 4.65,11.5 4.05,11.7 3.4,11.9 2.8,12.1 2.2,12.3 1.55,12.5 0.95,12.7 0.35,12.85 -0.25,13.05 -0.85,13.2 -1.1,10.25 -2.35,15.15 -2.05,9.9 -3.75,14.6 -2.95,9.55 -5.05,14 -3.8,9.1 -6.3,13.3 -4.6,8.6 -7.5,12.55 -5.4,8.1 -8.65,11.75 -9.3,11.2 -9.95,10.65 -10.55,10.1 -11.15,9.5 -11.7,8.9 -8.1,5.55 -12.6,7.8 -8.7,4.8 -13.45,6.65 -9.25,4.05 -14.25,5.4 -9.75,3.2 -13.95,3.85 -12.1,2.65 -8.1,1.4 -8.15,1.15 -8.2,0.85 -8.2,0.6 -8.25,0.35 -8.3,0.1 -5.35,-0.1 -10.65,-0.5 -10.5,-0.9 -5.2,-0.6 -5.15,-0.7 -10.25,-1.7 -10.1,-2.1 -9.95,-2.5 -9.85,-2.9 -9.7,-3.3 -9.55,-3.65 -4.75,-2 -9.35,-4.25 -9.25,-4.65 -9.1,-5.05 -4.5,-2.7 -8.9,-5.65 -13.1,-9.2 -1.3,-0.6 -1.75,-0.3 -2.55,0.25 -5.2,2.05 -4.45,1.45 -4.45,1.1 -4.45,0.7 -6.6,0.4 -4.35,-0.15 -4.3,-0.5 -4.2,-0.85 -4.1,-1.2 -4,-1.55 -3.85,-1.9 -3.7,-2.25 -3.55,-2.55 -5,-4.5 -4.55,-5.15 -2.6,-3.65 -2.25,-3.8 -1.9,-3.95 -1.55,-4.05 -1.2,-4.15 -0.85,-4.2 -0.6,-6.4 0.05,-4.3 0.75,-6.45 0.95,-4.3 2.1,-6.35 1.85,-4.15 2.2,-4.05 3.15,-4.85 0.4,-0.9 0.25,-0.85 v -1.6 l -0.5,-1.75 -4.7,-10.3 -3.95,-9.3 -5.3,-13.9 -4.55,-13.8 -3.85,-13.75 -2.15,-9.15 -1.8,-9.1 -2.1,-13.6 -1,-9 -0.65,-9 -0.35,-13.4 0.4,-13.35 1.2,-13.25 1.95,-13.15 1.7,-8.75 3.2,-13 4,-12.95 4.75,-12.85 3.6,-8.5 6.05,-12.7 6.8,-12.6 7.6,-12.5 8.35,-12.4 9.15,-12.3 8.05,-9.85 8.4,-9.3 8.75,-8.8 9.05,-8.25 9.4,-7.7 9.7,-7.2 10.05,-6.65 10.35,-6.1 10.65,-5.55 10.95,-5 11.25,-4.5 11.55,-3.95 11.85,-3.4 12.1,-2.85 12.4,-2.3 12.65,-1.75 8.6,-0.9 8.5,-0.65 8.4,-0.4 8.3,-0.15 m 2.05,7.55 -0.1,-0.15 -11.3,0.15 -5.65,0.25 -11.3,0.95 -11.25,1.45 -11.2,2 -11.1,2.55 -11,3.05 -10.9,3.6 -10.75,4.15 -10.6,4.7 -10.4,5.2 -10.2,5.75 -10,6.3 -9.75,6.85 -9.5,7.4 -9.2,7.9 -8.75,8.3 -8.15,8.5 -7.65,8.75 -7.1,8.95 -6.55,9.15 -6.05,9.3 -5.5,9.45 -5,9.6 -2.3,4.85 -4.25,9.75 -3.8,9.85 -3.3,9.95 -2.85,10 -1.25,5 -2.15,10.05 -1.7,10.05 -1.3,10.05 -0.85,10 -0.3,5 -0.25,9.95 0.15,9.9 0.95,14.65 1.8,14.4 2.65,14.05 3.45,13.7 4.2,13.25 4.95,12.75 5.65,12.2 4.15,7.8 4.3,7.3 0.2,0.1 4.1,-1.35 4.25,-1.1 4.2,-0.85 6.15,-0.7 4,-0.1 3.95,0.2 3.9,0.5 3.8,0.8 3.75,1.1 3.65,1.4 3.55,1.75 3.5,2.1 3.4,2.4 3.3,2.75 3.2,3.1 3.1,3.4 4,5.3 2.25,3.6 1.9,3.65 1.55,3.7 1.2,3.75 0.9,3.8 0.55,3.85 0.25,3.9 -0.1,3.95 -0.4,4 -0.7,4.05 -1,4.1 -1.3,4.1 -1.6,4.15 -1.75,3.95 0.05,0.25 7.8,5.6 8.3,5.4 4.25,2.55 8.7,4.85 8.95,4.5 9.15,4.1 9.35,3.7 9.55,3.3 9.75,2.9 9.9,2.5 5,1.1 10.1,1.9 10.2,1.45 10.3,1.05 10.35,0.6 5.2,0.15 10.45,-0.05 5.25,-0.2 10.5,-0.75 10.5,-1.2 10.45,-1.7 10.45,-2.15 5.2,-1.25 10.35,-2.9 10.25,-3.35 10.2,-3.85 10.05,-4.35 9.95,-4.9 9.8,-5.4 9.6,-5.9 9.45,-6.45 9.2,-7 9,-7.55 8.75,-8.05 8.55,-8.7 8.15,-9.1 7.6,-9.35 7.05,-9.65 6.5,-9.85 5.95,-10.1 5.45,-10.3 4.9,-10.5 4.35,-10.65 3.8,-10.8 3.3,-10.95 2.75,-11.05 2.2,-11.1 1.65,-11.2 1.15,-11.25 0.35,-5.65 0.35,-11.3 -0.2,-11.3 -0.3,-5.65 -1,-11.25 -1.55,-11.2 -2.1,-11.15 -2.6,-11.05 -3.15,-10.95 -3.7,-10.85 -4.25,-10.7 -4.75,-10.55 -5.3,-10.35 -5.85,-10.2 -6.35,-9.95 -6.9,-9.75 -7.45,-9.45 -7.95,-9.2 -8.4,-8.8 -8.65,-8.2 -9,-7.7 -9.3,-7.2 -9.55,-6.65 -9.8,-6.15 -10.05,-5.6 -10.25,-5.1 -10.45,-4.6 -10.65,-4.05 -10.8,-3.55 -10.9,-3 -11.05,-2.5 -11.1,-1.95 -11.2,-1.45 -11.25,-0.9 -11.3,-0.4 m -2.65,79.3 -0.05,0.05 0.45,0.15 0.2,0.3 1.45,4.7 30.85,125.3 1,2.8 0.65,1.05 0.8,0.9 2.05,1.35 2.7,0.9 125.4,30.9 2.65,1 1.9,1.35 0.2,0.6 -0.45,0.5 -4,1.25 -126.35,31.2 -2.55,0.9 -1.8,1.3 -1.2,1.85 -0.8,2.4 -30.95,125.35 -1.5,5.3 -0.25,0.35 -0.4,0.15 -1.15,-0.1 -0.4,-0.45 -32.15,-130.3 -0.9,-2.6 -1.35,-1.95 -1.9,-1.35 -2.65,-0.9 -125.9,-31.1 -4.85,-1.45 -0.25,-0.3 -0.05,-0.8 0.1,-0.4 0.35,-0.25 4.7,-1.5 125.3,-30.85 2.9,-1 1.15,-0.65 1,-0.8 0.8,-0.95 0.7,-1.15 1,-2.85 30.85,-125.4 0.95,-2.65 1.25,-1.9 0.5,-0.25 m -477.3,17.3 0.4,0.15 0.25,0.35 3.1,10.65 1.2,5.2 0.5,1.2 0.6,0.85 0.75,0.65 0.95,0.5 1.1,0.25 1.2,0.1 5.45,-0.15 4.05,0.1 6.75,0.65 0.55,0.45 -0.05,0.55 -0.25,0.2 -16.45,9.65 -0.1,0.25 7.45,20.95 0.05,0.3 -0.35,0.5 -0.3,0.05 L 44.3,518.1 27.95,503.6 H 27.7 L 11.55,518 11.1,518.15 10.6,518 l -0.25,-0.45 0.05,-0.3 7.45,-20.85 -0.1,-0.25 -17.5,-10.05 -0.35,-0.45 0.15,-0.7 0.55,-0.3 18.1,0.05 1,-0.15 1.45,-0.65 0.6,-0.6 0.85,-1.6 1.3,-5.1 3.35,-11.25 0.25,-0.35 0.4,-0.15 m 944.35,0.15 0.05,-0.1 0.4,0.15 0.25,0.35 5.45,19 0.2,0.15 h 20.7 l 0.5,0.25 0.2,0.8 -0.35,0.45 -17.35,10.05 -0.1,0.25 7.2,20.35 v 0.4 l -0.25,0.35 -0.65,0.3 -0.45,-0.15 -15.8,-14.1 H 972 l -15.95,14.25 -0.6,0.15 -0.55,-0.35 -0.1,-0.6 6.55,-18 0.2,-0.95 -0.15,-1.45 -0.35,-0.7 -1.2,-1.1 -8.25,-4.75 -5.7,-4 -0.25,-0.35 v -0.4 l 0.25,-0.3 0.4,-0.1 h 19.45 l 0.2,-0.15 5.65,-19.2 0.25,-0.35 0.4,-0.15 m -59.55,-196.85 0.05,-0.05 0.4,0.15 0.2,0.35 4.2,14.75 1.8,6.85 0.5,1.15 0.6,0.9 0.8,0.75 0.9,0.5 2.3,0.5 7.35,-0.15 17.2,0.05 0.4,0.15 0.2,0.4 0.1,0.75 -0.3,0.5 -23.7,13.6 -0.1,0.25 10.2,28.1 v 0.4 l -0.7,0.7 -0.65,-0.1 -21.95,-19.55 h -0.25 l -22.2,19.85 -0.45,0.15 -0.35,-0.1 -0.45,-0.45 v -0.45 l 10.35,-28.55 -0.1,-0.25 -23.75,-13.55 -0.3,-0.4 0.1,-0.85 0.2,-0.4 0.4,-0.15 17.6,-0.05 7.4,0.15 1.25,-0.2 0.95,-0.35 0.8,-0.5 0.7,-0.75 1,-1.95 3.4,-12.3 3.3,-9.45 0.25,-0.3 0.35,-0.1 m -825.65,-1.35 0.05,0.25 0.4,0.15 0.25,0.35 4.55,16.15 1.8,6.9 0.5,1.15 0.6,0.85 0.75,0.7 0.95,0.5 2.3,0.45 7.35,-0.15 17.2,0.05 0.4,0.15 0.2,0.4 0.1,0.85 -0.3,0.4 -23.7,13.5 -0.1,0.25 10.25,28.45 -0.1,0.6 -0.4,0.25 -0.45,0.05 -0.45,-0.15 -21.95,-19.65 H 87 l -22.05,19.6 -0.45,0.15 -0.6,-0.25 -0.3,-0.35 v -0.45 l 10.15,-28.3 -0.1,-0.25 -23.6,-13.55 -0.3,-0.35 0.05,-1.1 0.6,-0.4 16.15,-0.1 7.35,0.25 2.3,-0.3 1.8,-0.85 1.4,-1.45 1,-2.1 1.7,-7.1 4.3,-15.05 0.25,-0.35 0.4,-0.15 m 146.9,-169.9 0.15,0.05 0.4,0.15 0.2,0.35 7.9,27.6 1.2,3 0.65,1.15 0.7,0.95 0.85,0.8 2,1 1.25,0.3 3.15,0.35 31.8,0.45 0.65,0.3 0.5,0.55 v 0.4 l -0.3,0.35 -33.35,19.1 -0.1,0.25 14.65,40.5 -0.5,0.6 -0.7,-0.1 -31.4,-28.05 h -0.25 l -31.4,28.2 -0.45,0.15 -0.35,-0.1 -0.35,-0.4 v -0.45 l 14.7,-40.4 -0.1,-0.25 -33.65,-19.25 -0.3,-0.4 0.1,-0.85 0.2,-0.4 0.4,-0.15 25.7,-0.05 10.35,0.15 1.4,-0.2 1.1,-0.35 0.95,-0.6 0.85,-0.85 0.65,-1 0.55,-1.25 2.5,-9.35 2.25,-7.8 3.95,-11.7 0.9,-2.35 0.25,-0.3 0.35,-0.1 m 522.2,-1.6 -0.05,0.05 0.4,0.15 0.25,0.35 10.45,36.8 0.2,0.15 h 39.85 l 0.5,0.25 0.35,0.8 v 0.45 l -0.3,0.35 -33.6,19.15 -0.1,0.25 14.55,40.05 v 0.4 l -0.6,0.6 -0.65,-0.15 L 756.2,167 h -0.25 l -31.3,28.05 -0.45,0.15 -0.35,-0.1 -0.4,-0.4 v -0.45 l 14.6,-40.25 -0.1,-0.25 -33.45,-19.1 -0.3,-0.45 0.05,-0.5 0.2,-0.4 0.45,-0.15 h 39.85 l 0.2,-0.15 10.55,-37.2 0.25,-0.35 0.4,-0.15 M 500.55,1.2 h -0.1 l 0.4,0.15 0.25,0.35 13.2,46.65 0.2,0.15 h 53.05 l 0.4,0.15 0.25,0.35 0.15,0.65 -0.35,0.5 -44.65,25.4 -0.1,0.25 19.25,52.95 -0.1,0.6 -0.5,0.35 -0.6,-0.15 -41.1,-36.95 h -0.25 l -40.6,36.45 -0.6,0.15 -0.85,-0.7 v -0.4 l 16.35,-45.25 0.75,-3 0.15,-1.25 -0.3,-2.05 -0.45,-0.95 -0.65,-0.85 -0.85,-0.85 -2.45,-1.8 -13.9,-8.05 -12.25,-7.3 -10.6,-6.95 -0.2,-0.25 -0.05,-0.55 0.6,-0.4 h 24.1 l 17.1,-0.2 7,0.1 1.25,-0.2 0.95,-0.35 0.8,-0.5 0.7,-0.75 1,-1.95 6.45,-23 3.4,-10.9 3.1,-9.25 0.25,-0.3 0.4,-0.1"
       id="path4"
       inkscape:connector-curvature="0"
       style="fill:#ff7f00;stroke:none;fill-opacity:1" />
  </g>
</svg>
